# xmcd
# 
# Track frame offsets:
#     150
#     13894
#     27836
#     41159
#     54568
#     69242
#     82367
#     95615
#     109426
#     121734
#     135345
#     150059
#     161895
#     176539
#     189572
#     202539
#     217847
#     230767
#     244355
#     265268
#     280137
#     295515
# 
# Disc length: 4149
# 
# Revision: 1
# Processed by: cddbd v1.5.2PL0 Copyright (c) Steve Scherf et al.
# Submitted via: fre:ac v1.0.17
# 
DISCID=33103316
DTITLE=John Steinbeck - The Grapes of Wrath [CD13)
DYEAR=1939
DGENRE=Audiobook
TTITLE0=Chapter 22.19
TTITLE1=Chapter 22.20
TTITLE2=Chapter 22.21
TTITLE3=Chapter 22.22
TTITLE4=Chapter 22.23
TTITLE5=Chapter 22.24
TTITLE6=Chapter 22.25
TTITLE7=Chapter 22.26
TTITLE8=Chapter 22.27
TTITLE9=Chapter 22.28
TTITLE10=Chapter 22.29
TTITLE11=Chapter 22.30
TTITLE12=Chapter 22.31
TTITLE13=Chapter 22.32
TTITLE14=Chapter 22.33
TTITLE15=Chapter 22.34
TTITLE16=Chapter 22.35
TTITLE17=Chapter 22.36
TTITLE18=Chapter 22.37
TTITLE19=Chapter 23.01
TTITLE20=Chapter 23.02
TTITLE21=Chapter 23.03
EXTD=The Grapes of Wrath by John Steinbeck\nread by Dylan Baker recorded books 18 CDs\nnational folk country
EXTT0=
EXTT1=
EXTT2=
EXTT3=
EXTT4=
EXTT5=
EXTT6=
EXTT7=
EXTT8=
EXTT9=
EXTT10=
EXTT11=
EXTT12=
EXTT13=
EXTT14=
EXTT15=
EXTT16=
EXTT17=
EXTT18=
EXTT19=
EXTT20=
EXTT21=
PLAYORDER=
